<svg xmlns="http://www.w3.org/2000/svg" xmlns:xlink="http://www.w3.org/1999/xlink" width="581pt" height="394pt" viewBox="0 0 581 394"><g id="graph0" class="graph" transform="scale(1 1) rotate(0) translate(4 390)"><title>G</title><polygon fill="#fff" stroke="transparent" points="-4 4 -4 -390 577 -390 577 4 -4 4"/><text x="286.5" y="-7.8" font-family="Times,serif" font-size="14" text-anchor="middle">How can transactions affect it</text><g id="node1" class="node"><title>o</title><polygon fill="none" stroke="#000" points="384.5 -386 232.5 -386 232.5 -350 384.5 -350 384.5 -386"/><text x="308.5" y="-364.3" font-family="Times,serif" font-size="14" text-anchor="middle">observed transaction</text></g><g id="node2" class="node"><title>f</title><polygon fill="none" stroke="#000" points="204.5 -277 66.5 -277 66.5 -241 204.5 -241 204.5 -277"/><text x="135.5" y="-255.3" font-family="Times,serif" font-size="14" text-anchor="middle">failed transaction</text></g><g id="edge1" class="edge"><title>o:s-&gt;f:n</title><path fill="none" stroke="#000" d="M308.5,-350C308.5,-268.34 142.85,-356.5 135.74,-282.14"/><polygon fill="#000" stroke="#000" points="137.48 -281.91 135.5 -277 133.98 -282.08 137.48 -281.91"/></g><g id="node3" class="node"><title>u</title><polygon fill="none" stroke="#000" points="394.5 -277 222.5 -277 222.5 -241 394.5 -241 394.5 -277"/><text x="308.5" y="-255.3" font-family="Times,serif" font-size="14" text-anchor="middle">unconfirmed transaction</text></g><g id="edge2" class="edge"><title>o:s-&gt;u:n</title><path fill="none" stroke="#000" d="M308.5,-350C308.5,-319.33 308.5,-310.4 308.5,-282.11"/><polygon fill="#000" stroke="#000" points="310.25 -282 308.5 -277 306.75 -282 310.25 -282"/></g><g id="node4" class="node"><title>c</title><polygon fill="none" stroke="#000" points="570.5 -277 412.5 -277 412.5 -241 570.5 -241 570.5 -277"/><text x="491.5" y="-255.3" font-family="Times,serif" font-size="14" text-anchor="middle">confirmed transaction</text></g><g id="edge3" class="edge"><title>o:s-&gt;c:n</title><path fill="none" stroke="#000" d="M308.5,-350C308.5,-264.32 483.72,-360.26 491.25,-282.38"/><polygon fill="#000" stroke="#000" points="493.02 -282.08 491.5 -277 489.52 -281.91 493.02 -282.08"/></g><g id="node7" class="node"><title>kf</title><polygon fill="none" stroke="#000" points="135.5 -168 64.95 -150 135.5 -132 206.05 -150 135.5 -168"/><text x="135.5" y="-146.3" font-family="Times,serif" font-size="14" text-anchor="middle">is known?</text></g><g id="edge4" class="edge"><title>f:s-&gt;kf:n</title><path fill="none" stroke="#000" d="M135.5,-241C135.5,-210.33 135.5,-201.4 135.5,-173.11"/><polygon fill="#000" stroke="#000" points="137.25 -173 135.5 -168 133.75 -173 137.25 -173"/></g><g id="node6" class="node"><title>k</title><polygon fill="none" stroke="#000" points="356.5 -168 285.95 -150 356.5 -132 427.05 -150 356.5 -168"/><text x="356.5" y="-146.3" font-family="Times,serif" font-size="14" text-anchor="middle">is known?</text></g><g id="edge7" class="edge"><title>u:s-&gt;k:n</title><path fill="none" stroke="#000" d="M308.5,-241C308.5,-203.99 352.11,-206.49 356.19,-173.18"/><polygon fill="#000" stroke="#000" points="357.95 -173.09 356.5 -168 354.46 -172.89 357.95 -173.09"/></g><g id="edge8" class="edge"><title>c:s-&gt;k:n</title><path fill="none" stroke="#000" d="M491.5,-241C491.5,-174.65 363.78,-232.84 356.8,-173.31"/><polygon fill="#000" stroke="#000" points="358.53 -172.89 356.5 -168 355.03 -173.09 358.53 -172.89"/></g><g id="node5" class="node"><title>w</title><polygon fill="none" stroke="#000" points="125 -59 0 -59 0 -23 125 -23 125 -59"/><text x="62.5" y="-37.3" font-family="Times,serif" font-size="14" text-anchor="middle">wait to be known</text></g><g id="node8" class="node"><title>cs</title><polygon fill="none" stroke="#000" points="573 -59 300 -59 300 -23 573 -23 573 -59"/><text x="436.5" y="-37.3" font-family="Times,serif" font-size="14" text-anchor="middle">compensate spendings for audit balance</text></g><g id="edge10" class="edge"><title>k:e-&gt;cs:n</title><path fill="none" stroke="#000" d="M428.5,-150C467.36,-150 439.17,-103.84 436.67,-64.28"/><polygon fill="#000" stroke="#000" points="438.41 -63.94 436.5 -59 434.91 -64.05 438.41 -63.94"/><text x="434" y="-153.2" font-family="Times,serif" font-size="11" text-anchor="middle">no</text></g><g id="node9" class="node"><title>r</title><polygon fill="none" stroke="#000" points="281.5 -59 143.5 -59 143.5 -23 281.5 -23 281.5 -59"/><text x="212.5" y="-37.3" font-family="Times,serif" font-size="14" text-anchor="middle">remove from a list</text></g><g id="edge9" class="edge"><title>k:w-&gt;r:n</title><path fill="none" stroke="#000" d="M284.5,-150C278.76,-150 226.13,-82.93 214.69,-63.71"/><polygon fill="#000" stroke="#000" points="216.2 -62.8 212.5 -59 213.02 -64.27 216.2 -62.8"/></g><g id="edge5" class="edge"><title>kf:w-&gt;w:n</title><path fill="none" stroke="#000" d="M63.5,-150C24.79,-150 59.26,-103.7 62.29,-64.27"/><polygon fill="#000" stroke="#000" points="64.05 -64.07 62.5 -59 60.55 -63.93 64.05 -64.07"/><text x="58" y="-153.2" font-family="Times,serif" font-size="11" text-anchor="middle">no</text></g><g id="edge6" class="edge"><title>kf:e-&gt;r:n</title><path fill="none" stroke="#000" d="M207.5,-150C246.26,-150 215.41,-103.75 212.69,-64.27"/><polygon fill="#000" stroke="#000" points="214.43 -63.93 212.5 -59 210.93 -64.06 214.43 -63.93"/></g></g></svg>