<svg xmlns="http://www.w3.org/2000/svg" xmlns:xlink="http://www.w3.org/1999/xlink" width="353pt" height="476" viewBox="0 0 352.83 357"><g id="graph0" class="graph" transform="scale(1 1) rotate(0) translate(4 353)"><title>WniStateMachine</title><polygon fill="#fff" stroke="transparent" points="-4 4 -4 -353 348.83 -353 348.83 4 -4 4"/><text x="172.42" y="-7.8" font-family="Times,serif" font-size="14" text-anchor="middle">State Machine</text><g id="node1" class="node"><title>N</title><ellipse cx="127.69" cy="-301" fill="#084b83" stroke="#084b83" rx="37.09" ry="18"/><text x="127.69" y="-297.3" fill="#f0f6f6" font-family="Times,serif" font-size="14" text-anchor="middle">Normal</text></g><g id="edge1" class="edge"><title>N:n-&gt;N:n</title><path fill="none" stroke="#000" d="M127.69,-319C136.69,-325 136.69,-337 127.69,-337 120.24,-337 118.96,-328.77 123.85,-322.53"/><polygon fill="#000" stroke="#000" points="125.2 -323.67 127.69 -319 122.83 -321.1 125.2 -323.67"/><text x="127.69" y="-340.2" font-family="Times,serif" font-size="11" text-anchor="middle">Appended ok</text></g><g id="edge2" class="edge"><title>N:w-&gt;N:w</title><path fill="none" stroke="#000" d="M90.69,-301C84.65,-310 72.65,-310 72.65,-301 72.65,-293.55 80.87,-292.27 87.14,-297.16"/><polygon fill="#000" stroke="#000" points="86.01 -298.52 90.69 -301 88.58 -296.14 86.01 -298.52"/><text x="61.65" y="-298.2" font-family="Times,serif" font-size="11" text-anchor="middle">Utx*</text></g><g id="node2" class="node"><title>TRB</title><ellipse cx="183.69" cy="-152" fill="#42bfdd" stroke="#42bfdd" rx="85.29" ry="18"/><text x="183.69" y="-148.3" fill="#084b83" font-family="Times,serif" font-size="14" text-anchor="middle">TransientRollback</text></g><g id="edge3" class="edge"><title>N:e-&gt;TRB:n</title><path fill="none" stroke="#000" d="M165.69,-301C222.74,-301 186,-232.94 183.79,-175.2"/><polygon fill="#000" stroke="#000" points="185.54 -174.96 183.69 -170 182.04 -175.03 185.54 -174.96"/><text x="188.15" y="-217" font-family="Times,serif" font-size="11" text-anchor="middle">RolledBack</text></g><g id="edge4" class="edge"><title>N:e-&gt;TRB:ne</title><path fill="none" stroke="#000" d="M165.69,-301C231.94,-301 214.53,-198.24 204.22,-174.38"/><polygon fill="#000" stroke="#000" points="205.71 -173.45 201.69 -170 202.68 -175.21 205.71 -173.45"/><text x="231.67" y="-241.37" font-family="Times,serif" font-size="11" text-anchor="middle">Appended invalid</text></g><g id="edge5" class="edge"><title>TRB:nw-&gt;N:se</title><path fill="none" stroke="#000" d="M165.69,-170C130.49,-205.21 176.7,-244.63 147.22,-280.14"/><polygon fill="#000" stroke="#000" points="145.77 -279.13 143.69 -284 148.36 -281.49 145.77 -279.13"/><g id="a_edge5-headlabel"><a xlink:title="Same addresses and assets affected"><text x="111.79" y="-242.2" fill="#ff66b3" font-family="Times,serif" font-size="11" text-anchor="start">Appended ok</text><text x="169.79" y="-242.2" fill="#ff66b3" baseline-shift="super" font-family="Times,serif" font-size="11" text-anchor="start">1</text></a></g></g><g id="edge6" class="edge"><title>TRB:w-&gt;TRB:w</title><path fill="none" stroke="#000" d="M97.69,-152C92.55,-161 80.55,-161 80.55,-152 80.55,-144.69 88.47,-143.32 94.2,-147.89"/><polygon fill="#000" stroke="#000" points="93.12 -149.32 97.69 -152 95.79 -147.06 93.12 -149.32"/><text x="82.44" y="-162.14" font-family="Times,serif" font-size="11" text-anchor="middle">Utx*</text></g><g id="edge7" class="edge"><title>TRB:e-&gt;TRB:e</title><path fill="none" stroke="#000" d="M269.69,-152C274.83,-161 286.83,-161 286.83,-152 286.83,-144.69 278.91,-143.32 273.18,-147.89"/><polygon fill="#000" stroke="#000" points="271.59 -147.06 269.69 -152 274.26 -149.32 271.59 -147.06"/><text x="315.83" y="-149.2" font-family="Times,serif" font-size="11" text-anchor="middle">Appended ok</text></g><g id="edge8" class="edge"><title>TRB:se-&gt;TRB:se</title><path fill="none" stroke="#000" d="M201.69,-134C210.69,-128 210.69,-116 201.69,-116 194.24,-116 192.96,-124.23 197.85,-130.47"/><polygon fill="#000" stroke="#000" points="196.83 -131.9 201.69 -134 199.2 -129.33 196.83 -131.9"/><text x="183.69" y="-107.2" font-family="Times,serif" font-size="11" text-anchor="middle">RolledBack</text></g><g id="node3" class="node"><title>TRS</title><ellipse cx="89.69" cy="-41" fill="#bbe6e4" stroke="#bbe6e4" rx="89.88" ry="18"/><text x="89.69" y="-37.3" fill="#084b83" font-family="Times,serif" font-size="14" text-anchor="middle">TransientResolving</text></g><g id="edge9" class="edge"><title>TRB-&gt;TRS</title><path fill="none" stroke="#000" d="M169,-133.97C152.45,-114.77 125.53,-83.55 107.71,-62.9"/><polygon fill="#000" stroke="#000" points="108.87 -61.56 104.28 -58.91 106.22 -63.84 108.87 -61.56"/><text x="152.74" y="-68.4" font-family="Times,serif" font-size="11" text-anchor="middle">Appended ok</text></g><g id="edge10" class="edge"><title>TRS-&gt;N</title><path fill="none" stroke="#000" d="M80.41,-58.98C75.59,-69.36 70.69,-83.08 70.69,-96 70.69,-246 70.69,-246 70.69,-246 70.69,-262.8 83.9,-275.94 97.61,-285.05"/><polygon fill="#000" stroke="#000" points="96.7 -286.55 101.86 -287.75 98.57 -283.59 96.7 -286.55"/><text x="61.53" y="-204.49" font-family="Times,serif" font-size="11" text-anchor="middle">DataReceived</text></g></g></svg>