<svg xmlns="http://www.w3.org/2000/svg" xmlns:xlink="http://www.w3.org/1999/xlink" width="1128" height="205pt" viewBox="0 0 846 205"><g id="graph0" class="graph" transform="scale(1 1) rotate(0) translate(4 201)"><title>NodeResolvedFork</title><polygon fill="#fff" stroke="transparent" points="-4 4 -4 -201 842 -201 842 4 -4 4"/><text x="419" y="-7.8" font-family="Times,serif" font-size="14" text-anchor="middle">Resolved fork</text><g id="clust1" class="cluster"><title>cluster_0</title><polygon fill="none" stroke="#000" points="8 -114 8 -189 830 -189 830 -114 8 -114"/><text x="419" y="-173.8" font-family="Times,serif" font-size="14" text-anchor="middle">Original chain</text></g><g id="clust2" class="cluster"><title>cluster_1</title><polygon fill="none" stroke="#000" points="188 -31 188 -106 830 -106 830 -31 188 -31"/><text x="509" y="-90.8" font-family="Times,serif" font-size="14" text-anchor="middle">New main chain</text></g><g id="node1" class="node"><title>MB2</title><polygon fill="#ffe5d9" stroke="#ffe5d9" points="822 -158 768 -158 768 -122 822 -122 822 -158"/><text x="784.5" y="-137.3" font-family="Times,serif" font-size="14" text-anchor="start">µB</text><text x="798.5" y="-137.3" baseline-shift="sub" font-family="Times,serif" font-size="14" text-anchor="start">2</text></g><g id="node2" class="node"><title>MB1</title><polygon fill="#ffe5d9" stroke="#ffe5d9" points="732 -158 678 -158 678 -122 732 -122 732 -158"/><text x="694.5" y="-137.3" font-family="Times,serif" font-size="14" text-anchor="start">µB</text><text x="708.5" y="-137.3" baseline-shift="sub" font-family="Times,serif" font-size="14" text-anchor="start">1</text></g><g id="edge1" class="edge"><title>MB2-&gt;MB1</title><path fill="none" stroke="#000" d="M768,-140C768,-140 737.29,-140 737.29,-140"/><polygon fill="#000" stroke="#000" points="737.3 -138.25 732.29 -140 737.29 -141.75 737.3 -138.25"/></g><g id="node3" class="node"><title>AH1</title><text x="599.5" y="-137.5" font-family="Times,serif" font-size="10" text-anchor="middle">actual height</text></g><g id="edge2" class="edge"><title>MB1-&gt;AH1</title><path fill="none" stroke="#000" d="M677.83,-140C677.83,-140 647.14,-140 647.14,-140"/><polygon fill="#000" stroke="#000" points="647.14 -138.25 642.14 -140 647.14 -141.75 647.14 -138.25"/></g><g id="node4" class="node"><title>B1000</title><polygon fill="#f4acb7" stroke="#f4acb7" points="520.5 -158 466.5 -158 466.5 -122 520.5 -122 520.5 -158"/><text x="477.5" y="-137.3" font-family="Times,serif" font-size="14" text-anchor="start">B</text><text x="484.5" y="-137.3" baseline-shift="sub" font-family="Times,serif" font-size="14" text-anchor="start">1000</text></g><g id="edge3" class="edge"><title>AH1-&gt;B1000</title><path fill="none" stroke="#000" d="M557,-140C557,-140 525.78,-140 525.78,-140"/><polygon fill="#000" stroke="#000" points="525.78 -138.25 520.78 -140 525.78 -141.75 525.78 -138.25"/></g><g id="node12" class="node"><title>AH1_</title><text x="599.5" y="-54.5" font-family="Times,serif" font-size="10" text-anchor="middle">actual height</text></g><g id="edge15" class="edge"><title>AH1:s-&gt;AH1_:n</title><path fill="none" stroke="#000" stroke-dasharray="5 2" d="M599,-122C599,-122 599,-75 599,-75"/></g><g id="node5" class="node"><title>B999</title><polygon fill="#f4acb7" stroke="#f4acb7" points="430 -158 376 -158 376 -122 430 -122 430 -158"/><text x="390" y="-137.3" font-family="Times,serif" font-size="14" text-anchor="start">B</text><text x="397" y="-137.3" baseline-shift="sub" font-family="Times,serif" font-size="14" text-anchor="start">999</text></g><g id="edge4" class="edge"><title>B1000-&gt;B999</title><path fill="none" stroke="#000" d="M466.35,-140C466.35,-140 435.13,-140 435.13,-140"/><polygon fill="#000" stroke="#000" points="435.13 -138.25 430.13 -140 435.13 -141.75 435.13 -138.25"/></g><g id="node6" class="node"><title>B998</title><polygon fill="#f4acb7" stroke="#f4acb7" points="340 -158 286 -158 286 -122 340 -122 340 -158"/><text x="300" y="-137.3" font-family="Times,serif" font-size="14" text-anchor="start">B</text><text x="307" y="-137.3" baseline-shift="sub" font-family="Times,serif" font-size="14" text-anchor="start">998</text></g><g id="edge5" class="edge"><title>B999-&gt;B998</title><path fill="none" stroke="#000" d="M376,-140C376,-140 345.29,-140 345.29,-140"/><polygon fill="#000" stroke="#000" points="345.3 -138.25 340.29 -140 345.29 -141.75 345.3 -138.25"/></g><g id="node7" class="node"><title>Betc</title><polygon fill="#f4acb7" stroke="#f4acb7" points="250 -158 196 -158 196 -122 250 -122 250 -158"/><text x="223" y="-136.3" font-family="Times,serif" font-size="14" text-anchor="middle">...</text></g><g id="edge6" class="edge"><title>B998-&gt;Betc</title><path fill="none" stroke="#000" d="M286,-140C286,-140 255.29,-140 255.29,-140"/><polygon fill="#000" stroke="#000" points="255.3 -138.25 250.29 -140 255.29 -141.75 255.3 -138.25"/></g><g id="node8" class="node"><title>B901</title><polygon fill="#f4acb7" stroke="#f4acb7" points="160 -158 106 -158 106 -122 160 -122 160 -158"/><text x="120" y="-137.3" font-family="Times,serif" font-size="14" text-anchor="start">B</text><text x="127" y="-137.3" baseline-shift="sub" font-family="Times,serif" font-size="14" text-anchor="start">901</text></g><g id="edge7" class="edge"><title>Betc-&gt;B901</title><path fill="none" stroke="#000" d="M196,-140C196,-140 165.29,-140 165.29,-140"/><polygon fill="#000" stroke="#000" points="165.3 -138.25 160.29 -140 165.29 -141.75 165.3 -138.25"/></g><g id="node9" class="node"><title>B900</title><polygon fill="#f4acb7" stroke="#f4acb7" points="70 -158 16 -158 16 -122 70 -122 70 -158"/><text x="30" y="-137.3" font-family="Times,serif" font-size="14" text-anchor="start">B</text><text x="37" y="-137.3" baseline-shift="sub" font-family="Times,serif" font-size="14" text-anchor="start">900</text></g><g id="edge8" class="edge"><title>B901-&gt;B900</title><path fill="none" stroke="#000" d="M106,-140C106,-140 75.29,-140 75.29,-140"/><polygon fill="#000" stroke="#000" points="75.3 -138.25 70.29 -140 75.29 -141.75 75.3 -138.25"/></g><g id="node10" class="node"><title>MB2_</title></g><g id="node11" class="node"><title>MB1_</title><polygon fill="#9d8189" stroke="#9d8189" points="732 -75 678 -75 678 -39 732 -39 732 -75"/><text x="694.5" y="-54.3" fill="#fff" font-family="Times,serif" font-size="14" text-anchor="start">µB</text><text x="708.5" y="-54.3" fill="#fff" baseline-shift="sub" font-family="Times,serif" font-size="14" text-anchor="start">1</text></g><g id="edge9" class="edge"><title>MB1_-&gt;AH1_</title><path fill="none" stroke="#000" d="M677.83,-57C677.83,-57 647.14,-57 647.14,-57"/><polygon fill="#000" stroke="#000" points="647.14 -55.25 642.14 -57 647.14 -58.75 647.14 -55.25"/></g><g id="node13" class="node"><title>B1000_</title><polygon fill="#9d8189" stroke="#9d8189" points="521 -75 466 -75 466 -39 521 -39 521 -75"/><text x="474" y="-54.3" fill="#fff" font-family="Times,serif" font-size="14" text-anchor="start">B</text><text x="481" y="-54.3" fill="#fff" baseline-shift="sub" font-family="Times,serif" font-size="14" text-anchor="start">1000</text><text x="506" y="-54.3" fill="#fff" font-family="Times,serif" font-size="14" text-anchor="start">&apos;</text></g><g id="edge10" class="edge"><title>AH1_-&gt;B1000_</title><path fill="none" stroke="#000" d="M557,-57C557,-57 526.09,-57 526.09,-57"/><polygon fill="#000" stroke="#000" points="526.09 -55.25 521.09 -57 526.09 -58.75 526.09 -55.25"/></g><g id="node14" class="node"><title>B999_</title><polygon fill="#9d8189" stroke="#9d8189" points="430 -75 376 -75 376 -39 430 -39 430 -75"/><text x="386.5" y="-54.3" fill="#fff" font-family="Times,serif" font-size="14" text-anchor="start">B</text><text x="393.5" y="-54.3" fill="#fff" baseline-shift="sub" font-family="Times,serif" font-size="14" text-anchor="start">999</text><text x="412.5" y="-54.3" fill="#fff" font-family="Times,serif" font-size="14" text-anchor="start">&apos;</text></g><g id="edge11" class="edge"><title>B1000_-&gt;B999_</title><path fill="none" stroke="#000" d="M465.86,-57C465.86,-57 435.16,-57 435.16,-57"/><polygon fill="#000" stroke="#000" points="435.16 -55.25 430.16 -57 435.16 -58.75 435.16 -55.25"/></g><g id="node15" class="node"><title>Betc_</title><polygon fill="#9d8189" stroke="#9d8189" points="340 -75 286 -75 286 -39 340 -39 340 -75"/><text x="313" y="-53.3" fill="#fff" font-family="Times,serif" font-size="14" text-anchor="middle">...</text></g><g id="edge12" class="edge"><title>B999_-&gt;Betc_</title><path fill="none" stroke="#000" d="M376,-57C376,-57 345.29,-57 345.29,-57"/><polygon fill="#000" stroke="#000" points="345.3 -55.25 340.29 -57 345.29 -58.75 345.3 -55.25"/></g><g id="node16" class="node"><title>B902_</title><polygon fill="#9d8189" stroke="#9d8189" points="250 -75 196 -75 196 -39 250 -39 250 -75"/><text x="206.5" y="-54.3" fill="#fff" font-family="Times,serif" font-size="14" text-anchor="start">B</text><text x="213.5" y="-54.3" fill="#fff" baseline-shift="sub" font-family="Times,serif" font-size="14" text-anchor="start">902</text><text x="232.5" y="-54.3" fill="#fff" font-family="Times,serif" font-size="14" text-anchor="start">&apos;</text></g><g id="edge13" class="edge"><title>Betc_-&gt;B902_</title><path fill="none" stroke="#000" d="M286,-57C286,-57 255.29,-57 255.29,-57"/><polygon fill="#000" stroke="#000" points="255.3 -55.25 250.29 -57 255.29 -58.75 255.3 -55.25"/></g><g id="edge14" class="edge"><title>B902_:w-&gt;B901:s</title><path fill="none" stroke="#000" d="M196,-57C196,-57 133,-57 133,-57 133,-57 133,-117 133,-117"/><polygon fill="#000" stroke="#000" points="131.25 -117 133 -122 134.75 -117 131.25 -117"/></g></g></svg>