<svg xmlns="http://www.w3.org/2000/svg" xmlns:xlink="http://www.w3.org/1999/xlink" width="422pt" height="271pt" viewBox="0 0 422 271"><g id="graph0" class="graph" transform="scale(1 1) rotate(0) translate(4 267)"><title>MatcherNodeInteraction</title><polygon fill="#fff" stroke="transparent" points="-4 4 -4 -267 418 -267 418 4 -4 4"/><text x="207" y="-7.8" font-family="Times,serif" font-size="14" text-anchor="middle">Matcher-Node interaction</text><g id="clust1" class="cluster"><title>cluster_0</title><polygon fill="#56e39f" stroke="#56e39f" points="8 -180 8 -255 406 -255 406 -180 8 -180"/><text x="207" y="-239.8" font-family="Times,serif" font-size="14" text-anchor="middle">Node</text></g><g id="clust2" class="cluster"><title>cluster_1</title><polygon fill="#59c9a5" stroke="#59c9a5" points="8 -31 8 -106 406 -106 406 -31 8 -31"/><text x="207" y="-90.8" font-family="Times,serif" font-size="14" text-anchor="middle">Matcher</text></g><g id="node1" class="node"><title>MBUs</title><polygon fill="none" stroke="#000" points="200.5 -224 15.5 -224 15.5 -188 200.5 -188 200.5 -224"/><text x="108" y="-202.3" font-family="Times,serif" font-size="14" text-anchor="middle">Blockchain Updates server</text></g><g id="node2" class="node"><title>MEs</title><polygon fill="none" stroke="#000" points="397.5 -224 218.5 -224 218.5 -188 397.5 -188 397.5 -224"/><text x="308" y="-202.3" font-family="Times,serif" font-size="14" text-anchor="middle">Matcher Extension server</text></g><g id="node3" class="node"><title>MBUc</title><polygon fill="none" stroke="#000" points="200.5 -75 15.5 -75 15.5 -39 200.5 -39 200.5 -75"/><text x="108" y="-53.3" font-family="Times,serif" font-size="14" text-anchor="middle">Blockchain Updates client</text></g><g id="edge3" class="edge"><title>MBUs-&gt;MBUc</title><path fill="none" stroke="#000" stroke-dasharray="5 2" d="M108,-187.73C108,-187.73 108,-80.42 108,-80.42"/><polygon fill="#000" stroke="#000" points="109.75 -80.42 108 -75.42 106.25 -80.42 109.75 -80.42"/><text x="97.05" y="-141.76" font-family="Times,serif" font-size="11" text-anchor="middle">Blockchain events</text></g><g id="node4" class="node"><title>MEc</title><polygon fill="none" stroke="#000" points="397.5 -75 218.5 -75 218.5 -39 397.5 -39 397.5 -75"/><text x="308" y="-53.3" font-family="Times,serif" font-size="14" text-anchor="middle">Matcher Extension client</text></g><g id="edge4" class="edge"><title>MEs:sw-&gt;MEc:nw</title><path fill="none" stroke="#000" stroke-dasharray="5 2" d="M263.25,-188C263.25,-188 263.25,-80 263.25,-80"/><polygon fill="#000" stroke="#000" points="265 -80 263.25 -75 261.5 -80 265 -80"/><text x="266.6" y="-120.08" font-family="Times,serif" font-size="11" text-anchor="middle">UTX events</text></g><g id="edge5" class="edge"><title>MEc:ne-&gt;MEs:se</title><path fill="none" stroke="#000" d="M308,-75C308,-75 308,-183 308,-183"/><polygon fill="#000" stroke="#000" points="306.25 -183 308 -188 309.75 -183 306.25 -183"/><text x="314.05" y="-160.94" font-family="Times,serif" font-size="11" text-anchor="middle">Data request</text></g><g id="edge6" class="edge"><title>MEc:ne-&gt;MEs:se</title><path fill="none" stroke="#000" d="M352.75,-80C352.75,-80 352.75,-188 352.75,-188"/><polygon fill="#000" stroke="#000" points="354.5 -80 352.75 -75 351 -80 354.5 -80"/><text x="361.75" y="-146.23" font-family="Times,serif" font-size="11" text-anchor="middle">Data response</text></g></g></svg>