<svg xmlns="http://www.w3.org/2000/svg" xmlns:xlink="http://www.w3.org/1999/xlink" width="1072" height="152" viewBox="0 0 804.25 114.19"><g id="graph0" class="graph" transform="scale(1 1) rotate(0) translate(4 110.19)"><title>NodeChain</title><polygon fill="#fff" stroke="transparent" points="-4 4 -4 -110.19 800.25 -110.19 800.25 4 -4 4"/><text x="398.13" y="-7.8" font-family="Times,serif" font-size="14" text-anchor="middle">Chain</text><g id="node1" class="node"><title>MB2</title><ellipse cx="772.21" cy="-64.6" fill="#ffe5d9" stroke="#ffe5d9" rx="24.1" ry="24.1"/><text x="761.71" y="-61.9" font-family="Times,serif" font-size="14" text-anchor="start">µB</text><text x="775.71" y="-61.9" baseline-shift="sub" font-family="Times,serif" font-size="14" text-anchor="start">2</text></g><g id="node2" class="node"><title>MB1</title><ellipse cx="688.11" cy="-64.6" fill="#ffe5d9" stroke="#ffe5d9" rx="24.1" ry="24.1"/><text x="677.61" y="-61.9" font-family="Times,serif" font-size="14" text-anchor="start">µB</text><text x="691.61" y="-61.9" baseline-shift="sub" font-family="Times,serif" font-size="14" text-anchor="start">1</text></g><g id="edge1" class="edge"><title>MB2-&gt;MB1</title><path fill="none" stroke="#000" d="M747.9,-64.6C738.37,-64.6 727.27,-64.6 717.29,-64.6"/><polygon fill="#000" stroke="#000" points="717.19 -62.85 712.19 -64.6 717.19 -66.35 717.19 -62.85"/></g><g id="node3" class="node"><title>B1000</title><ellipse cx="596.87" cy="-64.6" fill="#f4acb7" stroke="#f4acb7" rx="31.4" ry="31.4"/><text x="580.87" y="-61.9" font-family="Times,serif" font-size="14" text-anchor="start">B</text><text x="587.87" y="-61.9" baseline-shift="sub" font-family="Times,serif" font-size="14" text-anchor="start">1000</text></g><g id="edge2" class="edge"><title>MB1-&gt;B1000</title><path fill="none" stroke="#000" d="M663.66,-64.6C654.43,-64.6 643.62,-64.6 633.46,-64.6"/><polygon fill="#000" stroke="#000" points="633.22 -62.85 628.22 -64.6 633.22 -66.35 633.22 -62.85"/></g><g id="node4" class="node"><title>B999</title><ellipse cx="502.37" cy="-64.6" fill="#f4acb7" stroke="#f4acb7" rx="27.1" ry="27.1"/><text x="489.37" y="-61.9" font-family="Times,serif" font-size="14" text-anchor="start">B</text><text x="496.37" y="-61.9" baseline-shift="sub" font-family="Times,serif" font-size="14" text-anchor="start">999</text></g><g id="edge3" class="edge"><title>B1000-&gt;B999</title><path fill="none" stroke="#000" d="M565.58,-64.6C555.71,-64.6 544.73,-64.6 534.78,-64.6"/><polygon fill="#000" stroke="#000" points="534.68 -62.85 529.68 -64.6 534.68 -66.35 534.68 -62.85"/></g><g id="node5" class="node"><title>B998</title><ellipse cx="411.78" cy="-64.6" fill="#f4acb7" stroke="#f4acb7" rx="27.1" ry="27.1"/><text x="398.78" y="-61.9" font-family="Times,serif" font-size="14" text-anchor="start">B</text><text x="405.78" y="-61.9" baseline-shift="sub" font-family="Times,serif" font-size="14" text-anchor="start">998</text></g><g id="edge4" class="edge"><title>B999-&gt;B998</title><path fill="none" stroke="#000" d="M474.79,-64.6C465.24,-64.6 454.38,-64.6 444.44,-64.6"/><polygon fill="#000" stroke="#000" points="444.34 -62.85 439.34 -64.6 444.34 -66.35 444.34 -62.85"/></g><g id="node6" class="node"><title>Betc</title><ellipse cx="324.43" cy="-64.6" fill="#f4acb7" stroke="#f4acb7" rx="24.1" ry="24.1"/><text x="324.43" y="-60.9" font-family="Times,serif" font-size="14" text-anchor="middle">...</text></g><g id="edge5" class="edge"><title>B998-&gt;Betc</title><path fill="none" stroke="#000" d="M384.24,-64.6C374.49,-64.6 363.42,-64.6 353.54,-64.6"/><polygon fill="#000" stroke="#000" points="353.49 -62.85 348.49 -64.6 353.49 -66.35 353.49 -62.85"/></g><g id="node7" class="node"><title>B901</title><ellipse cx="237.09" cy="-64.6" fill="#f4acb7" stroke="#f4acb7" rx="27.1" ry="27.1"/><text x="224.09" y="-61.9" font-family="Times,serif" font-size="14" text-anchor="start">B</text><text x="231.09" y="-61.9" baseline-shift="sub" font-family="Times,serif" font-size="14" text-anchor="start">901</text></g><g id="edge6" class="edge"><title>Betc-&gt;B901</title><path fill="none" stroke="#000" d="M300.11,-64.6C290.7,-64.6 279.69,-64.6 269.58,-64.6"/><polygon fill="#000" stroke="#000" points="269.39 -62.85 264.39 -64.6 269.39 -66.35 269.39 -62.85"/></g><g id="node8" class="node"><title>B900</title><ellipse cx="146.49" cy="-64.6" fill="#f4acb7" stroke="#f4acb7" rx="27.1" ry="27.1"/><text x="133.49" y="-61.9" font-family="Times,serif" font-size="14" text-anchor="start">B</text><text x="140.49" y="-61.9" baseline-shift="sub" font-family="Times,serif" font-size="14" text-anchor="start">900</text></g><g id="edge7" class="edge"><title>B901-&gt;B900</title><path fill="none" stroke="#000" d="M209.5,-64.6C199.96,-64.6 189.09,-64.6 179.15,-64.6"/><polygon fill="#000" stroke="#000" points="179.05 -62.85 174.05 -64.6 179.05 -66.35 179.05 -62.85"/></g><g id="node9" class="node"><title>B899</title><ellipse cx="41.6" cy="-64.6" fill="none" stroke="#000" stroke-dasharray="5 2" rx="41.69" ry="41.69"/><text x="41.6" y="-60.9" font-family="Times,serif" font-size="14" text-anchor="middle">dropped</text></g><g id="edge8" class="edge"><title>B900-&gt;B899</title><path fill="none" stroke="#000" d="M118.99,-64.6C109.68,-64.6 98.93,-64.6 88.48,-64.6"/><polygon fill="#000" stroke="#000" points="88.39 -62.85 83.39 -64.6 88.39 -66.35 88.39 -62.85"/></g></g></svg>